<svg width="103" height="40" viewBox="0 0 103 40" fill="none" xmlns="http://www.w3.org/2000/svg">
<rect width="58" height="40" rx="12" transform="matrix(-1 0 0 1 103 0)" fill="#F1F2F4"/>
<path d="M60.8715 22.1443H55V6.00003H60.8715V22.1443Z" fill="#015EB7"/>
<path d="M73.5352 22.1443H67.6636V6.00003H73.5352V22.1443Z" fill="#015EB7"/>
<path d="M65.7354 22.1443H62.7996V6.00003H65.7354V22.1443Z" fill="#015EB7"/>
<path d="M81.3343 22.1443H75.4628V6.00003H81.3343V22.1443Z" fill="#FDD602"/>
<path d="M93.9979 22.1443H88.1264V6.00003H93.9979V22.1443Z" fill="#FDD602"/>
<path d="M86.1981 22.1443H83.2624V6.00003H86.1981V22.1443Z" fill="#FDD602"/>
<path d="M55.6862 27.4684C55.6972 27.6701 55.7525 27.8409 55.8512 27.9807C55.9505 28.1209 56.1031 28.2291 56.3103 28.3054C56.5174 28.3821 56.7895 28.4203 57.1265 28.4203C57.6174 28.4203 57.9655 28.3617 58.1707 28.2439C58.3759 28.1264 58.4785 27.9688 58.4785 27.7708C58.4785 27.6326 58.4454 27.5237 58.3798 27.4431C58.3135 27.3631 58.1902 27.2996 58.0084 27.2528C57.8272 27.2061 57.5681 27.1828 57.231 27.1828H56.4447V26.5948H57.231C57.5278 26.5948 57.7564 26.5734 57.9181 26.5304C58.0791 26.4876 58.1902 26.425 58.2506 26.3428C58.311 26.2609 58.3408 26.1542 58.3408 26.0236C58.3408 25.8223 58.2447 25.6617 58.0525 25.5422C57.8603 25.4228 57.5421 25.3629 57.0993 25.3629C56.7804 25.3629 56.5219 25.4004 56.3239 25.4748C56.1265 25.5495 55.9804 25.6568 55.8869 25.7969C55.7934 25.9368 55.7375 26.1095 55.7193 26.3148H55.0323C55.0583 25.8407 55.2394 25.4665 55.5765 25.1921C55.9135 24.9177 56.4233 24.7805 57.1044 24.7805C57.5408 24.7805 57.9012 24.8348 58.1869 24.9431C58.4733 25.0513 58.6831 25.1931 58.8168 25.3685C58.95 25.5439 59.0168 25.738 59.0168 25.9509C59.0168 26.2161 58.9337 26.424 58.7668 26.5754C58.6006 26.7264 58.3869 26.8264 58.1265 26.8748V26.886C58.42 26.9383 58.6655 27.04 58.8629 27.1913C59.061 27.3423 59.1603 27.5635 59.1603 27.8547C59.1603 28.0676 59.0915 28.2601 58.9538 28.4315C58.8168 28.6032 58.5967 28.7414 58.2941 28.8461C57.9921 28.9503 57.6012 29.0027 57.1207 29.0027C56.4103 29.0027 55.8843 28.8674 55.5434 28.5967C55.2031 28.3262 55.0252 27.9501 55.0102 27.4684H55.6862Z" fill="black"/>
<path d="M62.4959 26.6848C62.7894 26.6848 63.0037 26.6309 63.1388 26.5226C63.2745 26.4143 63.3427 26.2594 63.3427 26.0577C63.3427 25.8563 63.2745 25.7013 63.1388 25.5931C63.0037 25.4849 62.7894 25.4306 62.4959 25.4306H60.9628V26.6848H62.4959ZM62.5128 24.8481C62.8459 24.8481 63.1245 24.8978 63.3479 24.9966C63.5713 25.0956 63.7388 25.2354 63.8511 25.4168C63.9628 25.5977 64.0187 25.8112 64.0187 26.0577C64.0187 26.3005 63.9628 26.5114 63.8511 26.6904C63.7388 26.8697 63.5713 27.0106 63.3479 27.1132C63.1245 27.2162 62.8459 27.2672 62.5128 27.2672H60.9628V28.936H60.303V24.8481H62.5128Z" fill="black"/>
<path d="M66.8868 28.4035C67.3706 28.4035 67.7433 28.2775 68.0057 28.0254C68.2674 27.7738 68.3986 27.42 68.3986 26.9644V26.8189C68.3986 26.3595 68.2687 26.0052 68.0083 25.7548C67.7479 25.5047 67.3745 25.3797 66.8868 25.3797C66.3927 25.3797 66.0141 25.5057 65.7524 25.7578C65.4901 26.0098 65.3595 26.3635 65.3595 26.8189V26.9644C65.3595 27.42 65.4901 27.7738 65.7524 28.0254C66.0141 28.2775 66.3927 28.4035 66.8868 28.4035ZM66.8764 29.0027C66.418 29.0027 66.0245 28.9188 65.6946 28.7506C65.3647 28.5828 65.1135 28.3476 64.9414 28.0452C64.7693 27.7428 64.6829 27.3865 64.6829 26.9755V26.8077C64.6829 26.3971 64.7693 26.0404 64.9414 25.738C65.1135 25.4356 65.3647 25.2004 65.6946 25.0326C66.0245 24.8644 66.418 24.7805 66.8764 24.7805C67.3414 24.7805 67.7388 24.8644 68.0687 25.0326C68.3986 25.2004 68.6492 25.4356 68.8219 25.738C68.994 26.0404 69.0797 26.3971 69.0797 26.8077V26.9755C69.0797 27.3865 68.994 27.7428 68.8219 28.0452C68.6492 28.3476 68.3986 28.5828 68.0687 28.7506C67.7388 28.9188 67.3414 29.0027 66.8764 29.0027Z" fill="black"/>
<path d="M72.3336 28.3592C72.6343 28.3592 72.8512 28.306 72.985 28.1997C73.1187 28.0934 73.1856 27.943 73.1856 27.7489C73.1856 27.5548 73.1187 27.4054 72.985 27.3007C72.8512 27.1964 72.6343 27.1441 72.3336 27.1441H70.7836V28.3592H72.3336ZM72.3506 26.5785C72.8486 26.5785 73.2233 26.6848 73.4739 26.8977C73.7252 27.1106 73.8505 27.3962 73.8505 27.7545C73.8505 28.1167 73.7252 28.404 73.4739 28.6169C73.2233 28.8298 72.8486 28.936 72.3506 28.936H70.1297V24.8481H73.5376V25.4305H70.7836V26.5785H72.3506Z" fill="black"/>
<path d="M75.4516 24.8476H78.9192V28.9354H78.2543V25.4412H76.0893L76.012 27.2162C76.001 27.6496 75.9471 27.9957 75.8496 28.255C75.7529 28.5146 75.6224 28.7002 75.4594 28.8124C75.2964 28.9243 75.0977 28.9802 74.8633 28.9802C74.7977 28.9802 74.7354 28.9756 74.6763 28.9664C74.6178 28.9568 74.5685 28.9466 74.5282 28.9354V28.3307C74.5354 28.3307 74.5438 28.3317 74.5529 28.3333C74.562 28.3353 74.5704 28.3363 74.5776 28.3363C74.6581 28.3399 74.7224 28.3418 74.7698 28.3418C74.8983 28.3418 75.0029 28.3103 75.0834 28.2468C75.1639 28.1833 75.2282 28.0648 75.2757 27.8911C75.323 27.7173 75.3523 27.4719 75.3633 27.1547L75.4516 24.8476Z" fill="black"/>
<path d="M80.1604 28.936V24.8481H83.4748V25.4305H80.8202V26.5785H83.2436V27.1497H80.8202V28.3481H83.5793V28.936H80.1604Z" fill="black"/>
<path d="M87.8816 24.8481H88.5518V28.936H87.8816V27.1889H85.2323V28.936H84.5673V24.8481H85.2323V26.5953H87.8816V24.8481Z" fill="black"/>
<path d="M91.8043 28.4035C92.288 28.4035 92.6608 28.2775 92.9232 28.0254C93.1848 27.7738 93.316 27.42 93.316 26.9644V26.8189C93.316 26.3595 93.1861 26.0052 92.9257 25.7548C92.6654 25.5047 92.292 25.3797 91.8043 25.3797C91.3101 25.3797 90.9316 25.5057 90.6698 25.7578C90.4075 26.0098 90.277 26.3635 90.277 26.8189V26.9644C90.277 27.42 90.4075 27.7738 90.6698 28.0254C90.9316 28.2775 91.3101 28.4035 91.8043 28.4035ZM91.7939 29.0027C91.3354 29.0027 90.9419 28.9188 90.612 28.7506C90.2821 28.5828 90.0309 28.3476 89.8588 28.0452C89.6867 27.7428 89.6004 27.3865 89.6004 26.9755V26.8077C89.6004 26.3971 89.6867 26.0404 89.8588 25.738C90.0309 25.4356 90.2821 25.2004 90.612 25.0326C90.9419 24.8644 91.3354 24.7805 91.7939 24.7805C92.2589 24.7805 92.6562 24.8644 92.9861 25.0326C93.316 25.2004 93.5667 25.4356 93.7394 25.738C93.9115 26.0404 93.9972 26.3971 93.9972 26.8077V26.9755C93.9972 27.3865 93.9115 27.7428 93.7394 28.0452C93.5667 28.3476 93.316 28.5828 92.9861 28.7506C92.6562 28.9188 92.2589 29.0027 91.7939 29.0027Z" fill="black"/>
<path d="M59.963 34.3617C60.2929 34.3617 60.5273 34.3103 60.6662 34.2076C60.8058 34.105 60.8754 33.955 60.8754 33.7569C60.8754 33.5703 60.8058 33.4236 60.6662 33.3173C60.5273 33.211 60.3071 33.1577 60.0071 33.1577H58.4019V34.3617H59.963ZM59.963 31.4162H58.4019V32.6201H60.0071C60.2598 32.6201 60.4487 32.5671 60.5734 32.4605C60.6974 32.3542 60.7598 32.2078 60.7598 32.0209C60.7598 31.8268 60.6968 31.6774 60.5701 31.5731C60.4442 31.4685 60.2415 31.4162 59.963 31.4162ZM60.5837 32.8889C60.837 32.9376 61.0598 33.0429 61.252 33.2054C61.4442 33.3677 61.5403 33.5851 61.5403 33.8576C61.5403 34.0593 61.4857 34.2422 61.3754 34.4064C61.2656 34.5709 61.0942 34.6996 60.8617 34.793C60.6286 34.8862 60.337 34.9329 59.9851 34.9329H57.748V30.845H59.9851C60.2961 30.845 60.561 30.8917 60.7792 30.9851C60.9974 31.0783 61.1591 31.2062 61.2656 31.3685C61.3721 31.531 61.4247 31.7149 61.4247 31.9202C61.4247 32.0956 61.3838 32.2506 61.3013 32.3848C61.2189 32.5194 61.1136 32.6276 60.9851 32.7099C60.8571 32.7918 60.7234 32.8478 60.5837 32.8777V32.8889Z" fill="black"/>
<path d="M67.6413 30.845H68.3887L66.6796 33.9083C66.5329 34.1768 66.3945 34.388 66.2646 34.541C66.1348 34.694 65.988 34.8088 65.8251 34.8852C65.662 34.9619 65.4614 35 65.2231 35C65.0542 35 64.8893 34.9777 64.7283 34.9329V34.3449C64.8861 34.3673 65.023 34.3785 65.1406 34.3785C65.2653 34.3785 65.3685 34.3627 65.451 34.3308C65.5335 34.2992 65.6069 34.2489 65.6711 34.1798C65.7348 34.1107 65.8036 34.0109 65.877 33.88L64.1568 30.845H64.9426L66.2945 33.3259L67.6413 30.845Z" fill="black"/>
<path d="M72.4613 34.9329L70.8561 32.8777L69.9275 33.7345V34.9329H69.2677V30.845H69.9275V32.9616L72.2301 30.845H73.1593L71.3781 32.4747L73.3022 34.9329H72.4613Z" fill="black"/>
<path d="M76.4003 32.6816C76.6938 32.6816 76.9081 32.6277 77.0432 32.5195C77.1789 32.4112 77.2471 32.2562 77.2471 32.0545C77.2471 31.8531 77.1789 31.6982 77.0432 31.5899C76.9081 31.4817 76.6938 31.4273 76.4003 31.4273H74.8672V32.6816H76.4003ZM76.4172 30.845C76.7503 30.845 77.0289 30.8947 77.2523 30.9934C77.4757 31.0924 77.6432 31.2323 77.7555 31.4135C77.8672 31.5945 77.923 31.8081 77.923 32.0545C77.923 32.2973 77.8672 32.5082 77.7555 32.6872C77.6432 32.8666 77.4757 33.0074 77.2523 33.1101C77.0289 33.2131 76.7503 33.264 76.4172 33.264H74.8672V34.9329H74.2074V30.845H76.4172Z" fill="black"/>
<path d="M80.2547 31.5843L79.5072 33.3482H81.0131L80.2547 31.5843ZM82.4151 34.9329H81.7001L81.2495 33.9082H79.2709L78.826 34.9329H78.1169L79.9306 30.845H80.5794L82.4151 34.9329Z" fill="black"/>
<path d="M84.6654 30.2879C84.5901 30.3606 84.4927 30.3971 84.3712 30.3971C84.2433 30.3971 84.1427 30.3606 84.0693 30.2879C83.9959 30.2152 83.9596 30.1192 83.9596 29.9994C83.9596 29.8839 83.9959 29.7904 84.0693 29.7194C84.1427 29.6486 84.2433 29.6131 84.3712 29.6131C84.4959 29.6131 84.5953 29.6486 84.668 29.7194C84.7413 29.7904 84.7784 29.8839 84.7784 29.9994C84.7784 30.1192 84.7407 30.2152 84.6654 30.2879ZM84.0913 30.845H83.4264V34.9329H84.0913V30.845ZM83.4537 30.2879C83.3803 30.3606 83.2816 30.3971 83.1569 30.3971C83.0322 30.3971 82.9336 30.3606 82.8602 30.2879C82.7868 30.2152 82.7504 30.1192 82.7504 29.9994C82.7504 29.8839 82.7868 29.7904 82.8602 29.7194C82.9336 29.6486 83.0322 29.6131 83.1569 29.6131C83.2816 29.6131 83.3803 29.6486 83.4537 29.7194C83.5271 29.7904 83.5634 29.8839 83.5634 29.9994C83.5634 30.1192 83.5271 30.2152 83.4537 30.2879Z" fill="black"/>
<path d="M88.6698 30.845H89.3399V34.9329H88.6698V33.1857H86.0204V34.9329H85.3554V30.845H86.0204V32.5921H88.6698V30.845Z" fill="black"/>
<path d="M91.2441 34.9329H90.5792V30.845H91.2441V34.9329Z" fill="black"/>
<rect width="40" height="40" rx="12" fill="url(#paint0_linear_43_3202)"/>
<path d="M26.7871 27.3576L25.0168 29.2194C24.0391 30.2477 24.0391 31.9148 25.0168 32.9431C25.9945 33.9714 27.5797 33.9714 28.5575 32.9431C29.5352 31.9148 29.5352 30.2477 28.5575 29.2194L26.7871 27.3576Z" fill="#43A0FD"/>
<path fill-rule="evenodd" clip-rule="evenodd" d="M9.00235 18.1066C8.88057 12.5844 13.5081 7.88466 19.4753 8.00216C25.5642 8.00216 29.9482 12.4669 29.7046 18.1066C29.7046 21.0849 28.4833 23.8275 26.3069 25.692C24.8751 23.9728 24.4694 22.0063 24.8894 19.7278C25.0163 19.2245 25.0771 18.6875 25.0771 18.1066C25.0771 16.4617 24.5899 15.1693 23.4939 13.9943C22.3979 12.9369 21.0584 12.3494 19.4753 12.3494C17.8921 12.3494 16.5526 12.8194 15.4566 13.9943C14.3606 15.1693 13.8735 16.4617 13.8735 18.1066C13.8735 19.7515 14.3606 21.0439 15.4566 22.2189C16.5526 23.2763 17.7704 23.8638 19.4753 23.8638L19.5162 23.8639C19.5432 23.8641 19.5701 23.8642 19.597 23.8638C21.9108 23.8638 23.2504 24.5687 24.3464 25.5087C24.5062 25.6286 24.6558 25.7536 24.7983 25.8818C24.9913 26.0552 25.1715 26.2345 25.3474 26.4152C25.142 26.5508 24.93 26.6796 24.7117 26.8011C23.5856 27.4697 22.3363 27.9005 21.0075 28.0935C20.4683 28.1719 19.916 28.211 19.3535 28.211C17.405 28.211 15.5784 27.7411 13.9952 26.8011C10.829 25.0387 9.00235 21.7489 9.00235 18.1066Z" fill="white"/>
<defs>
<linearGradient id="paint0_linear_43_3202" x1="0" y1="20" x2="40" y2="20" gradientUnits="userSpaceOnUse">
<stop stop-color="#003181"/>
<stop offset="1" stop-color="#2288ED"/>
</linearGradient>
</defs>
</svg>
