<svg width="24" height="13" viewBox="0 0 24 13" fill="none" xmlns="http://www.w3.org/2000/svg">
<path d="M17.9902 0C17.7913 5.23636e-05 17.5969 0.0594313 17.4319 0.170545C17.2668 0.281659 17.1387 0.439458 17.0639 0.62377C16.989 0.808082 16.9708 1.01053 17.0116 1.20523C17.0524 1.39994 17.1504 1.57805 17.2929 1.7168L20.5859 5.00977H0.99996C0.867448 5.00789 0.735885 5.03237 0.612917 5.08179C0.489949 5.1312 0.378028 5.20456 0.283658 5.29761C0.189289 5.39065 0.114352 5.50152 0.0632047 5.62378C0.012057 5.74604 -0.0142822 5.87724 -0.0142822 6.00977C-0.0142822 6.14229 0.012057 6.27349 0.0632047 6.39575C0.114352 6.51801 0.189289 6.62888 0.283658 6.72193C0.378028 6.81497 0.489949 6.88833 0.612917 6.93775C0.735885 6.98716 0.867448 7.01164 0.99996 7.00977H20.5859L17.2929 10.3027C17.197 10.3949 17.1203 10.5052 17.0675 10.6274C17.0148 10.7495 16.9869 10.8809 16.9855 11.014C16.9842 11.147 17.0094 11.279 17.0597 11.4022C17.1099 11.5254 17.1843 11.6373 17.2784 11.7313C17.3725 11.8254 17.4844 11.8998 17.6076 11.9501C17.7307 12.0004 17.8627 12.0256 17.9957 12.0242C18.1288 12.0229 18.2602 11.995 18.3823 11.9422C18.5045 11.8894 18.6148 11.8128 18.707 11.7168L23.707 6.7168C23.8945 6.52925 23.9998 6.27494 23.9998 6.00977C23.9998 5.74459 23.8945 5.49028 23.707 5.30273L18.707 0.302734C18.6138 0.20694 18.5024 0.130795 18.3792 0.0787983C18.2561 0.0268015 18.1238 7.76379e-06 17.9902 0Z" fill="#182A42"/>
</svg>
